<?xml version="1.0" encoding="UTF-8" standalone="no"?><!DOCTYPE svg PUBLIC "-//W3C//DTD SVG 1.1//EN" "http://www.w3.org/Graphics/SVG/1.1/DTD/svg11.dtd"><svg width="100%" height="100%" viewBox="0 0 167 167" version="1.1" xmlns="http://www.w3.org/2000/svg" xmlns:xlink="http://www.w3.org/1999/xlink" xml:space="preserve" style="fill-rule:evenodd;clip-rule:evenodd;stroke-linecap:round;stroke-linejoin:round;stroke-miterlimit:1.5;"><circle cx="83.333" cy="83.333" r="72.917" style="fill:none;stroke:#000;stroke-width:12.5px;"/><g id="reset"><path d="M41.386,99.185l-15.851,-15.852" style="fill:none;stroke:#000;stroke-width:12.5px;"/><path d="M41.386,99.185l15.851,-15.852" style="fill:none;stroke:#000;stroke-width:12.5px;"/><path d="M73.185,124.035c3.32,0.827 6.728,1.246 10.148,1.246c23.152,-0 41.948,-18.796 41.948,-41.948c-0,-23.151 -18.796,-41.947 -41.948,-41.947c-23.151,-0 -41.947,18.796 -41.947,41.947c-0,0.977 0.034,1.953 0.102,2.926c-0.068,-0.973 -0.102,-1.949 -0.102,-2.926c-0,-23.151 18.796,-41.947 41.947,-41.947c23.152,-0 41.948,18.796 41.948,41.947c-0,23.152 -18.796,41.948 -41.948,41.948c-3.42,-0 -6.828,-0.419 -10.148,-1.246Z" style="fill:none;stroke:#000;stroke-width:12.5px;"/></g></svg>